# xmcd
#
# Track frame offsets: 
#        150
#        11810
#        22660
#        35985
#        45930
#        57955
#        67855
#        80785
#        91395
#        102080
#        113815
#        126600
#        137320
#        148275
#        160410
#        171670
#        184470
#        199890
#        211370
#        226307
#
# Disc length: 3200 seconds
#
# Revision: 4
# Processed by: cddbd v1.5.2PL0 Copyright (c) Steve Scherf et al.
# Submitted via: ExactAudioCopy v0.99pb5
#
DISCID=250c7e14
DTITLE=Bravos, Los - Los Bravos
DYEAR=1998
DGENRE=Latin
TTITLE0=La Parada Del Autobús
TTITLE1=Will You Always Love Me
TTITLE2=Black Is Black
TTITLE3=Los Chicos Con Las Chicas
TTITLE4=I Want Your Name
TTITLE5=La Moto
TTITLE6=Come When I Call
TTITLE7=La Primera Amistad
TTITLE8=Trapped
TTITLE9=Al Ponerse El Sol
TTITLE10=Como Nadie Más
TTITLE11=Bring A Little Lovin'
TTITLE12=El Loco Soy Yo
TTITLE13=Just Holding On
TTITLE14=Te Quiero Así
TTITLE15=Save Me, Save Me
TTITLE16=Love Is A Symphony
TTITLE17=Sympathy
TTITLE18=People Talking Around
TTITLE19=Ma Marimba
EXTD=
EXTT0=
EXTT1=
EXTT2=
EXTT3=
EXTT4=
EXTT5=
EXTT6=
EXTT7=
EXTT8=
EXTT9=
EXTT10=
EXTT11=
EXTT12=
EXTT13=
EXTT14=
EXTT15=
EXTT16=
EXTT17=
EXTT18=
EXTT19=
PLAYORDER=
